HIERARCHY
ROOT Hips
{
	OFFSET -14.64140 90.27770 -84.91600
	CHANNELS 6 Xposition Yposition Zposition Zrotation Xrotation Yrotation
	JOINT Spine
	{
		OFFSET 0.00000 13.20850 -1.60436
		CHANNELS 3 Zrotation Xrotation Yrotation
		JOINT Spine1
		{
			OFFSET 0.00000 8.61716 0.00000
			CHANNELS 3 Zrotation Xrotation Yrotation
			JOINT Spine2
			{
				OFFSET 0.00000 8.61717 0.00000
				CHANNELS 3 Zrotation Xrotation Yrotation
				JOINT Spine3
				{
					OFFSET 0.00000 8.61717 0.00000
					CHANNELS 3 Zrotation Xrotation Yrotation
					JOINT Neck
					{
						OFFSET 0.00000 11.07920 1.10792
						CHANNELS 3 Zrotation Xrotation Yrotation
						JOINT Neck1
						{
							OFFSET 0.00000 7.08032 0.00000
							CHANNELS 3 Zrotation Xrotation Yrotation
							JOINT Head
							{
								OFFSET 0.00000 7.08031 0.00000
								CHANNELS 3 Zrotation Xrotation Yrotation
								End site
								{
									OFFSET 0.00000 0.00000 0.00000
								}
							}
						}
					}
					JOINT RightShoulder
					{
						OFFSET -0.01000 7.91373 5.19711
						CHANNELS 3 Zrotation Xrotation Yrotation
						JOINT RightArm
						{
							OFFSET -18.41580 0.00000 0.00000
							CHANNELS 3 Zrotation Xrotation Yrotation
							JOINT RightForeArm
							{
								OFFSET -29.11090 0.00000 0.00000
								CHANNELS 3 Zrotation Xrotation Yrotation
								JOINT RightHand
								{
									OFFSET -24.65040 0.00000 0.00000
									CHANNELS 3 Zrotation Xrotation Yrotation
									JOINT RightHandThumb1
									{
										OFFSET -5.35114 -0.85590 3.97906
										CHANNELS 3 Zrotation Xrotation Yrotation
										JOINT RightHandThumb2
										{
											OFFSET -4.52789 0.00000 0.00000
											CHANNELS 3 Zrotation Xrotation Yrotation
											JOINT RightHandThumb3
											{
												OFFSET -2.46976 0.00000 0.00000
												CHANNELS 3 Zrotation Xrotation Yrotation
												End site
												{
													OFFSET 0.00000 0.00000 0.00000
												}
											}
										}
									}
									JOINT RightHandIndex1
									{
										OFFSET -14.26970 0.00000 2.88139
										CHANNELS 3 Zrotation Xrotation Yrotation
										JOINT RightHandIndex2
										{
											OFFSET -5.48836 0.00000 0.00000
											CHANNELS 3 Zrotation Xrotation Yrotation
											JOINT RightHandIndex3
											{
												OFFSET -3.01859 0.00000 0.00000
												CHANNELS 3 Zrotation Xrotation Yrotation
												End site
												{
													OFFSET 0.00000 0.00000 0.00000
												}
											}
										}
									}
									JOINT RightHandMiddle1
									{
										OFFSET -14.26970 0.00000 -0.09147
										CHANNELS 3 Zrotation Xrotation Yrotation
										JOINT RightHandMiddle2
										{
											OFFSET -6.17441 0.00000 0.00000
											CHANNELS 3 Zrotation Xrotation Yrotation
											JOINT RightHandMiddle3
											{
												OFFSET -3.56743 0.00000 0.00000
												CHANNELS 3 Zrotation Xrotation Yrotation
												End site
												{
													OFFSET 0.00000 0.00000 0.00000
												}
											}
										}
									}
									JOINT RightHandRing1
									{
										OFFSET -12.69180 0.00000 -3.06433
										CHANNELS 3 Zrotation Xrotation Yrotation
										JOINT RightHandRing2
										{
											OFFSET -5.62556 0.00000 0.00000
											CHANNELS 3 Zrotation Xrotation Yrotation
											JOINT RightHandRing3
											{
												OFFSET -3.56744 0.00000 0.00000
												CHANNELS 3 Zrotation Xrotation Yrotation
												End site
												{
													OFFSET 0.00000 0.00000 0.00000
												}
											}
										}
									}
									JOINT RightHandPinky1
									{
										OFFSET -11.11390 0.00000 -6.03719
										CHANNELS 3 Zrotation Xrotation Yrotation
										JOINT RightHandPinky2
										{
											OFFSET -4.52789 0.00000 0.00000
											CHANNELS 3 Zrotation Xrotation Yrotation
											JOINT RightHandPinky3
											{
												OFFSET -2.46976 0.00000 0.00000
												CHANNELS 3 Zrotation Xrotation Yrotation
												End site
												{
													OFFSET 0.00000 0.00000 0.00000
												}
											}
										}
									}
								}
							}
						}
					}
					JOINT LeftShoulder
					{
						OFFSET 0.01000 7.91373 5.19711
						CHANNELS 3 Zrotation Xrotation Yrotation
						JOINT LeftArm
						{
							OFFSET 18.41580 0.00000 0.00000
							CHANNELS 3 Zrotation Xrotation Yrotation
							JOINT LeftForeArm
							{
								OFFSET 29.11090 0.00000 0.00000
								CHANNELS 3 Zrotation Xrotation Yrotation
								JOINT LeftHand
								{
									OFFSET 24.65040 0.00000 0.00000
									CHANNELS 3 Zrotation Xrotation Yrotation
									JOINT LeftHandThumb1
									{
										OFFSET 5.35114 -0.85590 3.97906
										CHANNELS 3 Zrotation Xrotation Yrotation
										JOINT LeftHandThumb2
										{
											OFFSET 4.52789 0.00000 0.00000
											CHANNELS 3 Zrotation Xrotation Yrotation
											JOINT LeftHandThumb3
											{
												OFFSET 2.46977 0.00000 0.00000
												CHANNELS 3 Zrotation Xrotation Yrotation
												End site
												{
													OFFSET 0.00000 0.00000 0.00000
												}
											}
										}
									}
									JOINT LeftHandIndex1
									{
										OFFSET 14.26970 0.00000 2.88139
										CHANNELS 3 Zrotation Xrotation Yrotation
										JOINT LeftHandIndex2
										{
											OFFSET 5.48836 0.00000 0.00000
											CHANNELS 3 Zrotation Xrotation Yrotation
											JOINT LeftHandIndex3
											{
												OFFSET 3.01859 0.00000 0.00000
												CHANNELS 3 Zrotation Xrotation Yrotation
												End site
												{
													OFFSET 0.00000 0.00000 0.00000
												}
											}
										}
									}
									JOINT LeftHandMiddle1
									{
										OFFSET 14.26970 0.00000 -0.09147
										CHANNELS 3 Zrotation Xrotation Yrotation
										JOINT LeftHandMiddle2
										{
											OFFSET 6.17440 0.00000 0.00000
											CHANNELS 3 Zrotation Xrotation Yrotation
											JOINT LeftHandMiddle3
											{
												OFFSET 3.56744 0.00000 0.00000
												CHANNELS 3 Zrotation Xrotation Yrotation
												End site
												{
													OFFSET 0.00000 0.00000 0.00000
												}
											}
										}
									}
									JOINT LeftHandRing1
									{
										OFFSET 12.69180 0.00000 -3.06433
										CHANNELS 3 Zrotation Xrotation Yrotation
										JOINT LeftHandRing2
										{
											OFFSET 5.62556 0.00000 0.00000
											CHANNELS 3 Zrotation Xrotation Yrotation
											JOINT LeftHandRing3
											{
												OFFSET 3.56744 0.00000 0.00000
												CHANNELS 3 Zrotation Xrotation Yrotation
												End site
												{
													OFFSET 0.00000 0.00000 0.00000
												}
											}
										}
									}
									JOINT LeftHandPinky1
									{
										OFFSET 11.11390 0.00000 -6.03719
										CHANNELS 3 Zrotation Xrotation Yrotation
										JOINT LeftHandPinky2
										{
											OFFSET 4.52789 0.00000 0.00000
											CHANNELS 3 Zrotation Xrotation Yrotation
											JOINT LeftHandPinky3
											{
												OFFSET 2.46976 0.00000 0.00000
												CHANNELS 3 Zrotation Xrotation Yrotation
												End site
												{
													OFFSET 0.00000 0.00000 0.00000
												}
											}
										}
									}
								}
							}
						}
					}
					JOINT pCube4
					{
						OFFSET 0.00000 10.91090 1.10792
						CHANNELS 3 Zrotation Xrotation Yrotation
						End site
						{
							OFFSET 0.00000 0.00000 0.00000
						}
					}
				}
			}
		}
	}
	JOINT RightUpLeg
	{
		OFFSET -9.98441 0.00000 0.00000
		CHANNELS 3 Zrotation Xrotation Yrotation
		JOINT RightLeg
		{
			OFFSET 0.00000 -42.11790 0.00000
			CHANNELS 3 Zrotation Xrotation Yrotation
			JOINT RightFoot
			{
				OFFSET 0.00000 -45.00020 -0.00001
				CHANNELS 3 Zrotation Xrotation Yrotation
				JOINT RightForeFoot
				{
					OFFSET 0.00000 -3.74820 0.00000
					CHANNELS 3 Zrotation Xrotation Yrotation
					JOINT RightToeBase
					{
						OFFSET 0.00000 0.06325 14.43120
						CHANNELS 3 Zrotation Xrotation Yrotation
						End site
						{
							OFFSET 0.00000 0.00000 0.00000
						}
					}
				}
			}
		}
	}
	JOINT LeftUpLeg
	{
		OFFSET 9.98441 0.00000 0.00000
		CHANNELS 3 Zrotation Xrotation Yrotation
		JOINT LeftLeg
		{
			OFFSET 0.00000 -42.11800 0.00000
			CHANNELS 3 Zrotation Xrotation Yrotation
			JOINT LeftFoot
			{
				OFFSET 0.00000 -45.00070 0.00000
				CHANNELS 3 Zrotation Xrotation Yrotation
				JOINT LeftForeFoot
				{
					OFFSET 0.00000 -3.74824 0.00000
					CHANNELS 3 Zrotation Xrotation Yrotation
					JOINT LeftToeBase
					{
						OFFSET 0.00000 0.06325 14.43110
						CHANNELS 3 Zrotation Xrotation Yrotation
						End site
						{
							OFFSET 0.00000 0.00000 0.00000
						}
					}
				}
			}
		}
	}
}
MOTION
Frames: 4
Frame Time: 0.050000
0.04732255045932596 -0.01274223632426707 0.03732367894490375 0.029187813051675088 -0.030254739222608407 0.014628458834570025 -3.6247551312830724 7.382875998417398 -0.6944923633640636 -0.6101423247873338 2.9336134052124496 0.37168828844035834 -0.8043493541561422 0.3079353157520093 -1.813461921311904 -0.2919740280367405 0.3546012134752674 -1.0776645636422861 -0.49576016110497656 8.690116299778591 0.4259430905842406 -0.11697891838680996 -0.5935342960748047 -1.4990271118126568 -0.2527830390289258 -14.338304053785082 -0.039504824299702083 4.105841299031224 -0.11509531129045239 -10.439538558867008 70.71438814414302 -7.331108668204172 30.921001498454153 39.29422334379542 15.404296450258023 103.88450382425671 20.997828701445314 -0.04010297081598912 -12.102665152569921 4.51418123125719 -0.17701632204909812 -1.552063410241607 -0.01936333959665238 0.04276262528599664 -56.19402978759293 -0.03037130421783585 -0.008963302192021105 -56.24438161448834 -38.77554544922682 0.04546782313105358 0.0009475139038268651 -0.013137041759029942 0.016784679019627418 0.025673856998219814 0.047372765426223463 -0.0012968683438531797 -0.03966288786825866 -36.69644107096163 -0.03947853081065854 0.038295132533647525 0.020983353320882487 -0.0011023516625112224 0.048349261394350904 -0.015511635530244537 0.03320469084018513 -0.020710820856971072 -19.778358029423547 -0.019975730817364465 0.014465196447887917 -0.041475033499628534 -0.01753859231244537 -0.010522182605319029 -0.033746965999206555 0.00045571201091038484 -0.015212754724616568 24.015586587067798 0.016048532150029316 -0.027951055685526797 28.838977607173156 0.031130842732608306 -0.030589366923807988 28.83711175834588 -0.025292114301418762 0.022101259589608943 -0.842485336060077 0.4349808221612266 8.885641287345164 -59.652001430376345 16.613840140776503 -37.21237115619056 -25.08113073298584 12.769414110233795 -101.95808561392076 -17.262618344381107 1.1469663381035715 -1.8222579820548048 -0.45347190313805974 0.0319801702942881 -8.14902897503507 -0.04482981451966468 -0.010688206018494795 44.59254461082204 0.011895907719108893 0.041346417492101606 44.59108058617258 12.437752928915062 -0.007472979250483622 0.04430808333493007 -0.031170354970501184 0.01919091471234268 0.010156501562006962 -0.016046977145177922 -0.043084552689029755 -0.0356920756097575 11.096401816186622 -0.03093618158048965 0.0164284089529988 0.00690773571949873 0.020009997026713352 -0.0268832135366786 -0.019414087418990224 -0.01912048425208639 0.010386768691608103 4.791004406154484 0.0214251511809416 -0.019284223353908555 -0.04422088572646023 -0.03330556718971695 0.035414385748929904 -0.03518915811436143 0.012947221868135999 0.0020425847780753533 -5.6364410403229 0.04927184970145041 -0.0010294463393406702 -6.7469748820838635 0.031486116917576176 2.4798565691022253e-05 -6.678779501217095 0.005685860321436871 0.01003804572479646 -0.025993291840337548 0.0455946935345373 -0.0034860778745111126 8.023277455035394 3.45522005948569 -19.18522166004066 0.0056067331020354366 10.39463707999159 0.04777753735479283 -5.628366368057274 -15.611994397418876 3.222809608839867 -0.019413487131497743 0.0035997045520649727 0.003986622130533168 0.04840564629048818 4.735979809545733 0.025349498079619143 12.469345484543926 -8.26622967706981 6.901366713911231 0.0001066106768669879 46.3948815804616 0.041337414835645646 -4.328610975333314 -14.704253582190399 -3.835366093511416 -0.024255188343761218 0.04330213068376092 -0.04367812134214564 0.004778486922048661 -10.720618806644488 -0.04321763698514391 
0.028654630117611726 0.009202098123218603 -0.035447005916200466 0.007025325741955542 -0.03954918766067639 0.0156470971420755 -3.5157559521236714 7.3810308805567715 -0.7344104814532147 -0.5955299241097268 2.946884382070239 0.35378689148986603 -0.8166189836234442 0.3525631992564969 -1.9254974072955209 -0.241892594063502 0.42782719220855575 -1.061477029146246 -0.5405633788457247 8.76558700678244 0.39422031039923866 -0.20061380449611713 -0.6500210719672381 -1.3869786830524244 -0.31525380440602496 -14.40940920970717 -0.05434103199992986 4.102088330700954 -0.19592103672650918 -10.459711027389563 70.9686304646778 -6.931741461094011 31.57248496430987 43.04429755926031 16.246538753355185 102.9597716270437 21.216716498119254 -0.03174021556595347 -12.67160386649396 4.50153150968908 -0.10139410669873687 -1.5999688928716393 0.03166327924858299 -0.014705210446974907 -56.202318792940495 -0.020396103455956764 0.045873630704069274 -56.22024838549334 -38.80887956711423 0.040097164561641155 -0.034095044299457526 0.009443128791416693 -0.006327967725869939 0.030037358940102458 -0.023316766220818755 0.007941715025810371 0.032756201684511536 -36.688459211312875 -0.028029830423338488 -0.02875329830281639 0.020569763131746386 -0.044125438057487316 0.007491315689488922 -0.010178633852605866 0.042223580920557266 -0.036088984663202844 -19.709986677675175 0.02628060813258398 0.038702025820270276 -0.04011782746461507 -0.04682219579101374 -0.021698612837554532 0.022304851013982847 -0.022963949046378006 0.03018334048179548 24.062346585713286 -0.04059527943512192 0.03857369703033762 28.884969516782327 0.014123703910423852 -0.0011455063149263614 28.83035665599481 -0.0421831281962587 0.037177798606433804 -0.8247835625194122 0.40156994553704195 8.742703454816578 -58.727573739783764 17.457926626295812 -38.63005019279613 -26.021547075133096 14.167534010502338 -100.55825195312434 -18.629312873634614 1.4276076402074882 -2.014956450043792 -0.5092929182554176 0.029458767698769726 -8.14878640628444 -0.003268913213797702 -0.03866575949610635 44.57881695804445 0.035483670009819085 -0.034893064920009736 44.60476553665325 12.41692921760055 0.006476993211918179 -0.01880293698886867 0.024598008115097714 -0.0371501930196457 0.024509225442708074 -0.03577499667088141 0.001793633284764166 0.04471319087374222 11.097951027429726 -0.04968322689646576 -0.023374821467454985 0.033293962486389723 -0.04186567365796635 0.005522495776419738 0.048984350662157776 0.04133515090447667 0.0002056499412777835 4.762832892999251 -0.03901680999648037 -0.008729123167237772 0.013551716583257493 -0.028974526874954165 -0.00929247876649699 -0.004298714734503917 0.020103331416180755 0.018464330189475856 -5.603511047317086 -0.025500119462847373 0.0083913109143565 -6.739627716963255 -0.0006920827529941051 -0.027094839938838006 -6.727682632387819 -0.01635037906630821 -0.028976539870872835 0.008563070301565433 0.015310627675142068 -0.04239288889396241 8.047520212998784 3.4895273053673 -19.18035591678083 0.023114076544543997 10.412440252944613 -0.02495815750414718 -5.5859227603705275 -15.654361001626297 3.2238503538774643 0.008147285579367038 0.0005769413592198364 0.007403052759999456 0.010793171711450625 4.675574677309012 -0.0007637275121926381 12.448565371284271 -8.238439884566382 6.863515524238738 0.021489620885248823 46.42263015783386 0.04973553299484316 -4.31076984142974 -14.699562039806148 -3.847512367640315 0.007861895144328172 0.041552792408224876 -0.026725260711389497 0.006094438725149658 -10.720651166753036 -0.01955841216722083 
0.018071027288457525 0.013358778972688458 0.004518290179446243 0.015524510991934297 -0.016351016587185446 0.038040806333249015 -3.4989415253507534 7.344807249459849 -0.7103357300897871 -0.6263841325534347 3.043264996515701 0.31795985194293286 -0.7363829486401732 0.3182053393617246 -2.011920647597733 -0.1016144670441233 0.48265076618586916 -1.089746995302453 -0.5360328537430243 8.80978015054721 0.2603892446887528 -0.2163926862422763 -0.7543637144315133 -1.4514624796453213 -0.2918204821807442 -14.462001455196946 -0.041060411610195025 4.2159265973554545 -0.20681475466934782 -10.529146929387343 70.66690709274722 -5.855048537727475 31.399234066066143 45.05150871615621 16.473418771099247 102.23183737507037 21.175159567694376 -0.05455321815929584 -12.828854294882289 4.57713860212643 -0.09694746139529503 -1.638532606775174 0.02024352515395545 -0.04425975415173795 -56.25989121460737 -0.02470068885536097 0.00010080828960333972 -56.190007019433516 -38.77970585845045 -0.022063781380639098 0.012511069623948275 0.04984993916700043 -0.04146187295621148 0.02928670891210391 -0.04112592665116009 0.019482803771004618 0.011983927433570437 -36.70258512082109 0.04658327898658269 -0.015274283866693068 -0.03214261741972213 -0.024830084213719586 -0.011087840477720186 0.003917433149113489 -0.026156049460924227 -0.04830744731718838 -19.803980918850968 0.030832493218183224 -0.011082586384310457 -0.03996551532362886 0.03414863491975513 0.01484303480888932 0.03825974033167257 -0.003204924322054262 -0.037323555369862815 24.084383806129306 -0.0011504810330034848 -0.04083626976407188 28.890696766241014 -0.005990710653937211 -0.022307915019882205 28.88581895515568 -0.007829516134524823 -0.02237622271939394 -0.8394224223646467 0.4008902368795908 8.733500829447442 -57.584777314837105 18.738728032048055 -39.03072616309049 -25.352363515196668 14.509627422522778 -99.01873409894216 -19.516801942286378 1.6631739754891552 -2.0749684168350706 -0.43889290630036093 0.037494740716760566 -8.115941829237553 0.03569878454773235 0.015298906067747616 44.56943508158811 -0.02741557511773221 -0.03419251990403333 44.57731692239844 12.488473706342514 -0.04050419990099681 0.038931916174666056 0.009942165114930977 -0.01844612336819419 0.02452676184085489 0.010105167266294833 0.010835121039994866 -0.022402619523070343 11.113935246389955 0.03628240531489832 0.014121592023123486 -0.02970539983487677 0.04614593887246932 -0.021398263944666415 -0.0006360008725809542 0.02058018446071279 -0.022954712043650682 4.744954154795601 0.037515815061881 0.025046239153887383 -0.049971107110696106 0.013098419451594026 0.030328163486491602 0.039616324059630934 -0.010016684368396278 0.03811180716007238 -5.598814186633161 -0.00750369936596204 -0.021566869127403958 -6.681733316699118 0.013921540092672031 0.01955067001539251 -6.736775035527637 0.012455482838042929 0.04312369210843388 -0.005728966778865404 0.023363404794654874 0.020045751925551077 8.039761754509955 3.4544241306569465 -19.204877679315018 -0.017207427148735546 10.354945713057612 0.023776654182367737 -5.581656614461681 -15.682756257933743 3.198508957159962 -0.04446457270624508 -0.0009117038312803584 0.034670022834167355 -0.04771904010084265 4.720602744839601 -0.04094223841181282 12.466448443151993 -8.210551841575885 6.9152940251036386 -0.032512023308313084 46.4193309020823 0.021116853634464212 -4.311774662891886 -14.70293012864147 -3.833475714020154 0.04104066496237853 0.01021962373660314 -0.04407881494781133 0.028757976804433125 -10.745052632316092 0.005617746241668394 
-0.015591289542207804 -0.026060639436929246 -0.046955021547179954 0.010958125348792614 0.03616981732260533 0.035688552291007695 -3.44350879694788 7.310336998544821 -0.7703336282391837 -0.6169091137045335 3.0715860609830106 0.36089955109379573 -0.7230229944782927 0.43220129064375795 -2.0897917013185503 0.013362162594624454 0.45160635211497896 -1.1424602790734346 -0.5505118780065078 8.764017732497209 0.2022166949005861 -0.17694355603807072 -0.7832094706967775 -1.4451536893020698 -0.3585541635118512 -14.60597771929137 -0.07698511620891577 4.5869444546972185 -0.34029792810453957 -10.617845427493597 69.97753361214019 -4.1199206916627 30.07316252137699 47.18899632145492 16.384956019666827 101.85986757395185 21.476707338547104 0.03572541635396106 -13.162401409585868 4.5107463316196865 -0.079543051622673 -1.6013472836715423 0.010333645203328214 -0.00230753599274588 -56.24706112475224 0.02311690631925234 0.010178093671809225 -56.20758888553959 -38.74115928766549 -0.01208641078227122 0.02797500993972408 0.0478739882853718 -0.02434963635179636 0.008553058259652442 0.025670287944687196 0.0279886785221525 -0.04245145732576697 -36.654991121615296 0.0194710778544826 -0.04326337816937619 0.02422679296130743 0.01458732555258854 0.038437614909646485 0.034934702764373646 -0.036030356436004614 0.006786442189064378 -19.710674489067767 0.03614488261210596 0.017952512595030997 0.02102421800688902 -0.04607727276303751 -0.018374543774940657 0.017337040941304175 -0.03881944176202765 0.03227586966753397 24.027195702698368 0.006173069830826267 0.0418947142802094 28.867979113935032 -0.02988882603029365 -0.010273094244587673 28.869580518245687 0.01042727103494403 0.04671284153930807 -1.1126713039344633 0.38833396587233104 8.81330120368873 -56.317319058976445 20.66683218447745 -38.914896638390324 -24.166318744708615 14.48979977968872 -98.16552768257874 -20.409136199925094 1.8579619348628724 -2.1921507933250144 -0.4401421229326853 0.06826786279411519 -8.168877327544624 0.03511994603595842 0.03059521975699688 44.573860783081685 -0.02210125574037305 -0.04195532609315531 44.548861174748595 12.491426539849332 0.010789118486043208 -0.014590384388712446 -0.029086212088473444 -0.03877203792095785 -0.047516536952586896 0.034293603156079606 0.022252399480798345 0.03496840907289146 11.075955824893798 0.00998438202588879 -0.002833058052779157 0.04288422613024269 -0.03766056846654726 0.008487891578050253 -0.027345167712882118 0.0014425797537682766 0.026788351740942504 4.7456304644812475 -0.01959207924840087 -0.014816658794363962 0.00823999347541021 -0.023526582751671507 -0.037884978296046805 0.0024451914371603424 -0.02660391928879762 -0.019944953081812444 -5.587104329963047 0.03341876277871622 0.04759510532788563 -6.7049949144255105 0.004640825971817447 -0.0046025778624786545 -6.694289811071148 0.0386700378349324 -0.011460893580403636 -0.036846073694481916 0.026051200551723067 -0.025660148876101376 8.061857017785135 3.5082056330023135 -19.188804128366346 0.036221735305422706 10.357527501596211 -0.0015545322559556637 -5.599603506672937 -15.659249973675296 3.1871627636960764 0.029675127865281186 0.00797473537015972 0.015584856831783176 0.03275192517065223 4.694111323385354 0.0021521339638121955 12.45748348840892 -8.262874126884629 6.932504829673536 -0.02898786112175257 46.35536543516442 0.04422554474135794 -4.320160473632428 -14.702885135122 -3.842055486070681 0.02300622218410606 0.009895081837356516 -0.026892184850896762 0.015621648275254127 -10.754925035101133 0.004273728796674425 
